<mxfile host="app.diagrams.net" agent="Mozilla/5.0 (Windows NT 10.0; Win64; x64) AppleWebKit/537.36 (KHTML, like Gecko) Chrome/129.0.0.0 Safari/537.36" version="24.7.17">
  <diagram name="Page-1" id="vTZRo5Hn38DPCM6BCFyR">
    <mxGraphModel dx="1000" dy="1399" grid="0" gridSize="10" guides="1" tooltips="1" connect="1" arrows="1" fold="1" page="0" pageScale="1" pageWidth="850" pageHeight="1100" math="0" shadow="0">
      <root>
        <mxCell id="0" />
        <mxCell id="1" parent="0" />
        <mxCell id="TR5ZbvATBXByWpKUNYxo-5" value="&lt;span style=&quot;background-color: rgb(251, 251, 251);&quot;&gt;GhostImpl&lt;/span&gt;" style="swimlane;fontStyle=1;align=center;verticalAlign=top;childLayout=stackLayout;horizontal=1;startSize=26;horizontalStack=0;resizeParent=1;resizeParentMax=0;resizeLast=0;collapsible=1;marginBottom=0;whiteSpace=wrap;html=1;" parent="1" vertex="1">
          <mxGeometry x="-97" y="-306" width="346" height="349" as="geometry" />
        </mxCell>
        <mxCell id="TR5ZbvATBXByWpKUNYxo-6" value="&lt;span style=&quot;background-color: rgb(251, 251, 251);&quot;&gt;- LAYER: Layer = Layer.FOREGROUND&lt;/span&gt;&lt;div style=&quot;background-color: rgb(251, 251, 251);&quot;&gt;- IMAGE: Image&lt;/div&gt;&lt;div style=&quot;background-color: rgb(251, 251, 251);&quot;&gt;- BOUNDINGBOX: BoundingBox&lt;/div&gt;&lt;div style=&quot;background-color: rgb(251, 251, 251);&quot;&gt;- STARTINGPOSITION: Vector2D&lt;/div&gt;&lt;div style=&quot;background-color: rgb(251, 251, 251);&quot;&gt;- TARGETCORNER: Vector2D&lt;/div&gt;&lt;div style=&quot;background-color: rgb(251, 251, 251);&quot;&gt;- kinematicState: KinematicState&lt;/div&gt;&lt;div style=&quot;background-color: rgb(251, 251, 251);&quot;&gt;- ghostMode: GhostMode&lt;/div&gt;&lt;div style=&quot;background-color: rgb(251, 251, 251);&quot;&gt;- targetLocation: Vector2D&lt;/div&gt;&lt;div style=&quot;background-color: rgb(251, 251, 251);&quot;&gt;- currentDirection: Direction&lt;/div&gt;&lt;div style=&quot;background-color: rgb(251, 251, 251);&quot;&gt;- possibleDirections: Set&amp;lt;Direction&amp;gt;&lt;/div&gt;&lt;div style=&quot;background-color: rgb(251, 251, 251);&quot;&gt;- playerPosition: Vector2D&lt;/div&gt;&lt;div style=&quot;background-color: rgb(251, 251, 251);&quot;&gt;- speeds: Map&amp;lt;GhostMode, Double&amp;gt;&lt;/div&gt;" style="text;strokeColor=none;fillColor=none;align=left;verticalAlign=top;spacingLeft=4;spacingRight=4;overflow=hidden;rotatable=0;points=[[0,0.5],[1,0.5]];portConstraint=eastwest;whiteSpace=wrap;html=1;" parent="TR5ZbvATBXByWpKUNYxo-5" vertex="1">
          <mxGeometry y="26" width="346" height="187" as="geometry" />
        </mxCell>
        <mxCell id="TR5ZbvATBXByWpKUNYxo-7" value="" style="line;strokeWidth=1;fillColor=none;align=left;verticalAlign=middle;spacingTop=-1;spacingLeft=3;spacingRight=3;rotatable=0;labelPosition=right;points=[];portConstraint=eastwest;strokeColor=inherit;" parent="TR5ZbvATBXByWpKUNYxo-5" vertex="1">
          <mxGeometry y="213" width="346" height="8" as="geometry" />
        </mxCell>
        <mxCell id="TR5ZbvATBXByWpKUNYxo-8" value="&lt;div style=&quot;background-color: rgb(251, 251, 251);&quot;&gt;+ update(): void&lt;/div&gt;&lt;span style=&quot;background-color: rgb(251, 251, 251);&quot;&gt;- updateDirection(): void&lt;/span&gt;&lt;div style=&quot;background-color: rgb(251, 251, 251);&quot;&gt;- getTargetLocation(): Vector2D&lt;br&gt;&lt;div&gt;- selectDirection(Set&amp;lt;Direction&amp;gt; possibleDirections): Direction&lt;/div&gt;&lt;/div&gt;&lt;div style=&quot;background-color: rgb(251, 251, 251);&quot;&gt;+ collidesWith(Renderable renderable): boolean&lt;/div&gt;&lt;div style=&quot;background-color: rgb(251, 251, 251);&quot;&gt;+ collideWith(Level evel, Renderable renderable): void&lt;/div&gt;&lt;div style=&quot;background-color: rgb(251, 251, 251);&quot;&gt;+ reset(): void&lt;/div&gt;&lt;div style=&quot;background-color: rgb(251, 251, 251);&quot;&gt;&amp;nbsp;&lt;/div&gt;" style="text;strokeColor=none;fillColor=none;align=left;verticalAlign=top;spacingLeft=4;spacingRight=4;overflow=hidden;rotatable=0;points=[[0,0.5],[1,0.5]];portConstraint=eastwest;whiteSpace=wrap;html=1;" parent="TR5ZbvATBXByWpKUNYxo-5" vertex="1">
          <mxGeometry y="221" width="346" height="128" as="geometry" />
        </mxCell>
        <mxCell id="TR5ZbvATBXByWpKUNYxo-10" value="&lt;i style=&quot;font-weight: 400; background-color: rgb(251, 251, 251);&quot;&gt;&amp;lt;&amp;lt;Interface&amp;gt;&amp;gt;&lt;/i&gt;&lt;br style=&quot;font-weight: 400; background-color: rgb(251, 251, 251);&quot;&gt;&lt;b style=&quot;background-color: rgb(251, 251, 251);&quot;&gt;Ghost&lt;/b&gt;&lt;div&gt;&lt;b style=&quot;background-color: rgb(251, 251, 251);&quot;&gt;&lt;br&gt;&lt;/b&gt;&lt;/div&gt;" style="swimlane;fontStyle=1;align=center;verticalAlign=top;childLayout=stackLayout;horizontal=1;startSize=36;horizontalStack=0;resizeParent=1;resizeParentMax=0;resizeLast=0;collapsible=1;marginBottom=0;whiteSpace=wrap;html=1;" parent="1" vertex="1">
          <mxGeometry x="-94.5" y="-597" width="335" height="233" as="geometry" />
        </mxCell>
        <mxCell id="TR5ZbvATBXByWpKUNYxo-13" value="+ setSpeeds(Map&amp;lt;GhostMode, Double&amp;gt; speeds): void&lt;br/&gt;+ setGhostMode(GhostMode ghostMode): void&lt;br/&gt;+ getTargetCorner(): Vector2D&lt;br/&gt;+ getTargetLocation(): Vector2D&lt;br/&gt;+ setTargetLocation(Vector2D targetLocation): void&lt;br/&gt;+ setCurrentDirection(Direction direction): void&lt;br/&gt;+ getCurrentDirection(): Direction&lt;br/&gt;+ getKinematicState(): KinematicState&lt;br/&gt;+ getPossibleDirections(): Set&amp;lt;Direction&amp;gt;&lt;br/&gt;+ setState(IGhostState state): void&lt;br/&gt;+ getState(): IGhostState&lt;br/&gt;+ getCurrentDirectionCount(): int&lt;br/&gt;+ setCurrentDirectionCount(int currentDirectionCount): void" style="text;strokeColor=none;fillColor=none;align=left;verticalAlign=top;spacingLeft=4;spacingRight=4;overflow=hidden;rotatable=0;points=[[0,0.5],[1,0.5]];portConstraint=eastwest;whiteSpace=wrap;html=1;" parent="TR5ZbvATBXByWpKUNYxo-10" vertex="1">
          <mxGeometry y="36" width="335" height="197" as="geometry" />
        </mxCell>
      </root>
    </mxGraphModel>
  </diagram>
</mxfile>
